<?xml version="1.0" encoding="utf-8"?>
<!-- Generator: Adobe Illustrator 24.1.0, SVG Export Plug-In . SVG Version: 6.00 Build 0)  -->
<svg version="1.1" id="Layer_1" xmlns="http://www.w3.org/2000/svg" xmlns:xlink="http://www.w3.org/1999/xlink" x="0px" y="0px"
	 width="200px" height="38.8px" viewBox="0 0 200 38.8" style="enable-background:new 0 0 200 38.8;" xml:space="preserve">
<g>
	<g>
		<path d="M61.1,13.2v4.8h-4.2V2.7h6.8c3.9,0,6,2.1,6,5.3c0,3.1-2.1,5.2-5.9,5.2H61.1L61.1,13.2z M61.1,6.4v3.1h2.6
			c1,0,1.8-0.6,1.8-1.6c0-1-0.8-1.6-1.8-1.6H61.1L61.1,6.4z"/>
		<polygon points="75.5,18.1 71.3,18.1 71.3,2.7 75.5,2.7 75.5,18.1 		"/>
		<path d="M106,6.3l-3.7,2c-0.7-1.3-1.9-1.9-3.4-1.9c-2.1,0-3.7,1.6-3.7,4c0,2.6,1.8,4,3.7,4c1.5,0,2.6-0.7,3.5-1.9l3.4,2.4
			c-1.4,2.2-3.8,3.5-6.8,3.5c-4.7,0-8.1-3.3-8.1-8c0-4.7,3.4-8,8.1-8C101.9,2.4,104.6,3.9,106,6.3L106,6.3z"/>
		<path d="M139.3,10.4c0,4.6-3.4,8-8.1,8s-8.1-3.4-8.1-8c0-4.6,3.4-8,8.1-8S139.3,5.8,139.3,10.4L139.3,10.4z M127.4,10.4
			c0,2.3,1.5,4,3.8,4s3.8-1.6,3.8-4c0-2.3-1.5-4-3.8-4S127.4,8,127.4,10.4L127.4,10.4z"/>
		<polygon points="158.5,18.1 153.6,18.1 151,9.1 148.4,18.1 143.5,18.1 139.1,2.7 143.4,2.7 146.1,13 148.8,2.7 153.3,2.7 156,13 
			158.6,2.7 162.9,2.7 158.5,18.1 		"/>
		<path d="M174.2,7.5c-1-0.6-2.5-1.3-4.4-1.3c-1.1,0-2,0.3-2,1c0,0.9,1.6,1,3.1,1.3l0.5,0.1c3.2,0.6,4.8,2.1,4.8,4.5
			c0,3.9-3.3,5.3-6.5,5.3c-2.8,0-5.3-0.7-7-1.9l2-3.4c1.2,0.7,2.7,1.6,5,1.6c1.1,0,1.9-0.3,1.9-1.1c0-0.8-1-0.9-2.9-1.3l-0.6-0.1
			c-3.5-0.6-5-2.1-4.9-4.8c0.1-2.9,2.5-4.9,6.2-4.9c2,0,3.8,0.2,6.5,1.6L174.2,7.5L174.2,7.5z"/>
		<polygon points="85.4,36.3 81.4,36.3 75.1,27.7 75.1,36.3 70.9,36.3 70.9,21 75,21 81.3,29.6 81.3,21 85.4,21 85.4,36.3 		"/>
		<path d="M114.4,26.1c0,2.4-1.4,4.1-4,4.6l4.2,5.6h-4.9l-3.7-5.5h-0.2v5.5h-4.2V21h6.8C112.4,21,114.4,23,114.4,26.1L114.4,26.1z
			 M105.8,24.7v2.7h2.6c1,0,1.8-0.4,1.8-1.4c0-0.9-0.8-1.4-1.8-1.4H105.8L105.8,24.7z"/>
		<path d="M129.3,22.8l-2.9,2.9c-0.7-0.7-1.6-1.1-2.9-1.1c-2.2,0-3.7,1.7-3.7,4.1c0,2.8,1.8,4.2,3.8,4.2c1.9,0,3-0.8,3.5-2.3h-3.6
			v-3h7.6c0.1,0.5,0.1,0.9,0.1,1.4c0,5.1-3.8,7.7-7.4,7.7c-4.8,0-8.2-3.3-8.2-8c0-4.7,3.4-8,8.2-8C126.2,20.7,128,21.5,129.3,22.8
			L129.3,22.8z"/>
		<polygon points="139.9,30.5 139.9,36.3 135.7,36.3 135.7,30.6 129.9,21 134.7,21 137.8,26.8 140.9,21 145.6,21 139.9,30.5 		"/>
		<polygon points="89.7,2.7 77.7,2.7 77.7,18.1 89.7,18.1 89.7,14.4 81.9,14.4 81.9,6.4 89.7,6.4 89.7,2.7 		"/>
		<polygon points="89.1,12.2 89.1,8.4 83.7,8.4 82,12.2 89.1,12.2 		"/>
		<polygon points="111.7,2.7 107.5,2.7 107.5,18.1 111.7,18.1 111.7,2.7 		"/>
		<polygon points="117.3,2.7 117.3,8.4 113.5,8.4 111.7,12.2 117.3,12.2 117.3,18.1 121.5,18.1 121.5,2.7 117.3,2.7 		"/>
		<polygon points="198,18.1 193.8,18.1 193.8,2.7 198,2.7 198,18.1 		"/>
		<polygon points="182.1,2.7 177.9,2.7 177.9,18.1 182.1,18.1 182.1,2.7 		"/>
		<polygon points="188.3,18.1 182.2,10.2 187.8,2.7 192.5,2.7 187,10.2 193,18.1 188.3,18.1 		"/>
		<polygon points="68.9,21 56.9,21 56.9,36.3 68.9,36.3 68.9,32.6 61.1,32.6 61.1,24.7 68.9,24.7 68.9,21 		"/>
		<polygon points="68.4,30.4 68.4,26.7 62.9,26.7 61.2,30.4 68.4,30.4 		"/>
		<polygon points="99.6,21 87.6,21 87.6,36.3 99.6,36.3 99.6,32.6 91.8,32.6 91.8,24.7 99.6,24.7 99.6,21 		"/>
		<polygon points="99.1,30.4 99.1,26.7 93.6,26.7 91.9,30.4 99.1,30.4 		"/>
	</g>
	<g>
		<path d="M18.1,36.5c-9.5,0-17.3-7.7-17.3-17.2C0.8,9.8,8.5,2,18.1,2c9.5,0,17.3,7.7,17.3,17.2C35.3,28.7,27.6,36.5,18.1,36.5
			L18.1,36.5z M18.1,3.4c-8.8,0-15.9,7.1-15.9,15.8c0,8.7,7.1,15.8,15.9,15.8c8.8,0,15.9-7.1,15.9-15.8C33.9,10.5,26.8,3.4,18.1,3.4
			L18.1,3.4z"/>
		<path d="M18.1,33c-7.6,0-13.8-6.2-13.8-13.7c0-7.6,6.2-13.7,13.8-13.7s13.8,6.2,13.8,13.7C31.8,26.8,25.7,33,18.1,33L18.1,33z
			 M18.1,6.9c-6.8,0-12.4,5.5-12.4,12.3s5.6,12.3,12.4,12.3s12.4-5.5,12.4-12.3S24.9,6.9,18.1,6.9L18.1,6.9z"/>
		<path d="M18.1,29.5c-5.7,0-10.3-4.6-10.3-10.3C7.7,13.6,12.4,9,18.1,9s10.3,4.6,10.3,10.3C28.4,24.9,23.7,29.5,18.1,29.5
			L18.1,29.5z M18.1,10.4c-4.9,0-8.9,4-8.9,8.9c0,4.9,4,8.9,8.9,8.9s8.9-4,8.9-8.9C27,14.4,23,10.4,18.1,10.4L18.1,10.4z"/>
		<path d="M18.1,26c-3.8,0-6.8-3-6.8-6.8c0-3.7,3.1-6.8,6.8-6.8c3.8,0,6.8,3,6.8,6.8C24.9,23,21.8,26,18.1,26L18.1,26z M18.1,13.9
			c-3,0-5.4,2.4-5.4,5.4c0,3,2.4,5.4,5.4,5.4c3,0,5.4-2.4,5.4-5.4C23.5,16.3,21,13.9,18.1,13.9L18.1,13.9z"/>
		<path d="M18.1,22.6c-1.8,0-3.3-1.5-3.3-3.3c0-1.8,1.5-3.3,3.3-3.3c1.8,0,3.3,1.5,3.3,3.3C21.4,21.1,19.9,22.6,18.1,22.6L18.1,22.6
			z M18.1,17.3c-1.1,0-1.9,0.9-1.9,1.9c0,1.1,0.9,1.9,1.9,1.9c1.1,0,1.9-0.9,1.9-1.9C20,18.2,19.1,17.3,18.1,17.3L18.1,17.3z"/>
		<path d="M34.6,36.5c-9.5,0-17.3-7.7-17.3-17.2C17.4,9.8,25.1,2,34.6,2c9.5,0,17.3,7.7,17.3,17.2C51.9,28.7,44.2,36.5,34.6,36.5
			L34.6,36.5z M34.6,3.4c-8.8,0-15.9,7.1-15.9,15.8c0,8.7,7.1,15.8,15.9,15.8c8.8,0,15.9-7.1,15.9-15.8C50.5,10.5,43.4,3.4,34.6,3.4
			L34.6,3.4z"/>
		<path d="M34.6,33c-7.6,0-13.8-6.2-13.8-13.7c0-7.6,6.2-13.7,13.8-13.7c7.6,0,13.8,6.2,13.8,13.7C48.4,26.8,42.2,33,34.6,33
			L34.6,33z M34.6,6.9c-6.8,0-12.4,5.5-12.4,12.3s5.6,12.3,12.4,12.3S47,26.1,47,19.2S41.5,6.9,34.6,6.9L34.6,6.9z"/>
		<path d="M34.6,29.5c-5.7,0-10.3-4.6-10.3-10.3C24.3,13.6,29,9,34.6,9s10.3,4.6,10.3,10.3C44.9,24.9,40.3,29.5,34.6,29.5L34.6,29.5
			z M34.6,10.4c-4.9,0-8.9,4-8.9,8.9c0,4.9,4,8.9,8.9,8.9c4.9,0,8.9-4,8.9-8.9C43.5,14.4,39.6,10.4,34.6,10.4L34.6,10.4z"/>
		<path d="M34.6,26c-3.8,0-6.8-3-6.8-6.8c0-3.7,3.1-6.8,6.8-6.8c3.8,0,6.8,3,6.8,6.8C41.5,23,38.4,26,34.6,26L34.6,26z M34.6,13.9
			c-3,0-5.4,2.4-5.4,5.4c0,3,2.4,5.4,5.4,5.4c3,0,5.4-2.4,5.4-5.4C40.1,16.3,37.6,13.9,34.6,13.9L34.6,13.9z"/>
		<path d="M34.6,22.6c-1.8,0-3.3-1.5-3.3-3.3c0-1.8,1.5-3.3,3.3-3.3c1.8,0,3.3,1.5,3.3,3.3C38,21.1,36.5,22.6,34.6,22.6L34.6,22.6z
			 M34.6,17.3c-1.1,0-1.9,0.9-1.9,1.9c0,1.1,0.9,1.9,1.9,1.9c1.1,0,1.9-0.9,1.9-1.9C36.6,18.2,35.7,17.3,34.6,17.3L34.6,17.3z"/>
	</g>
</g>
</svg>
